<svg xmlns="http://www.w3.org/2000/svg" viewBox="0 0 48.06 48.06"><defs><style>.cls-1{fill:#666;}</style></defs><g id="Layer_2" data-name="Layer 2"><g id="Layer_1-2" data-name="Layer 1"><polygon class="cls-1" points="6.29 44.34 19.7 30.94 17.12 28.36 3.71 41.77 3.71 28.06 0.07 28.06 0.07 45.41 0 45.49 0.07 45.56 0.07 47.99 2.5 47.99 2.58 48.06 2.65 47.99 20 47.99 20 44.34 6.29 44.34"/><polygon class="cls-1" points="41.77 3.71 28.36 17.12 30.94 19.7 44.34 6.29 44.34 20 47.99 20 47.99 2.65 48.06 2.58 47.99 2.5 47.99 0.07 45.56 0.07 45.49 0 45.41 0.07 28.06 0.07 28.06 3.71 41.77 3.71"/></g></g></svg>